<svg width="320" height="320" viewBox="0 0 320 320" fill="none" xmlns="http://www.w3.org/2000/svg">
<mask id="mask0_946_1236" style="mask-type:alpha" maskUnits="userSpaceOnUse" x="0" y="0" width="320" height="320">
<circle cx="159.935" cy="159.935" r="159.935" fill="#D9D9D9"/>
</mask>
<g mask="url(#mask0_946_1236)">
<circle cx="159.935" cy="159.935" r="159.935" fill="#FFD43C"/>
<path d="M242.695 61.0445L234.428 18.2136L323.86 27.5585L329.872 282.207C145.495 341.569 69.3864 332.321 20.2412 245.607C77 292.5 179.707 269.369 207.5 221L234.428 156C246.452 152.262 246.915 148.5 253.216 135.804C274.86 92.1942 255.22 67.7936 242.695 61.0445Z" fill="#AF8D14"/>
</g>
<path d="M91.3701 52.5323C85.3721 48.4453 82.013 48.6204 76.0129 52.5323C82.013 48.6204 61.4831 48.4453 67.4812 52.5323" stroke="black" stroke-width="2"/>
<path d="M130.401 80.8703C124.992 75.8337 121.593 75.5143 114.984 78.5971C121.593 75.5143 101.01 72.2977 106.42 77.3342" stroke="black" stroke-width="2"/>
<path d="M75.4734 86.0486C69.0455 83.9684 66.3285 85.1725 62.7645 90.7839C66.3285 85.1725 49.2763 91.3343 55.7041 93.4146" stroke="black" stroke-width="2"/>
<path d="M110.376 110.841C104.126 110.518 102.221 112.298 101.149 118.344C102.221 112.298 89.7731 122.188 96.0226 122.512" stroke="black" stroke-width="2"/>
<path d="M69.2268 114.723C63.2831 114.107 61.5337 115.737 60.7156 121.531C61.5337 115.737 50.0436 124.698 55.9872 125.313" stroke="black" stroke-width="2"/>
<path d="M86.8567 150.036C80.7916 148.017 79.2358 149.422 79.1455 155.635C79.2358 149.422 68.7965 156.727 74.8616 158.745" stroke="black" stroke-width="2"/>
<circle cx="158" cy="143.5" r="9.5" fill="#AF8D14"/>
<ellipse cx="144.5" cy="164.5" rx="4" ry="4.5" fill="#AF8D14"/>
<ellipse cx="163.5" cy="164.5" rx="4" ry="4.5" fill="#AF8D14"/>
</svg>
