<svg width="904" height="382" viewBox="0 0 904 382" fill="none" xmlns="http://www.w3.org/2000/svg">
<mask id="mask0_920_1232" style="mask-type:alpha" maskUnits="userSpaceOnUse" x="0" y="0" width="904" height="382">
<path d="M159.685 194.096L128.518 219.202C121.881 226.994 108.26 241.712 106.875 238.249C105.49 234.786 99.9489 233.92 97.3516 233.92L0.388672 319.628L97.3516 335.212L462.694 381.096L903.356 308.374L891.236 280.67C884.31 265.375 868.38 231.669 860.069 219.202C849.68 203.619 828.037 178.512 823.708 182.841C820.245 186.304 811.299 181.398 807.259 178.512C794.562 165.238 767.954 137.996 763.106 135.225C758.258 132.455 753.006 136.38 750.986 138.688C737.134 126.279 708.218 100.596 703.37 97.1328C697.31 92.8041 687.787 104.924 684.324 106.656C680.861 108.387 678.264 104.924 673.069 97.1328C668.914 90.8995 658.063 92.8041 653.157 94.5356L622.856 113.582C606.119 93.9584 571.085 53.6726 564.852 49.5171C558.618 45.3615 539.168 52.98 530.222 57.3087C525.893 53.5572 516.716 44.6689 514.639 39.1282C512.041 32.2022 502.518 39.1282 499.921 39.1282C497.324 39.1282 480.009 20.9476 476.546 17.4846C473.083 14.0217 477.412 9.69297 476.546 4.49852C475.68 -0.695924 473.949 -0.695924 470.486 1.03556C467.023 2.76704 456.634 14.0217 447.977 17.4846C439.319 20.9476 435.856 25.2763 434.991 29.605C434.298 33.068 422.582 49.5171 416.81 57.3087C414.04 54.5384 406.998 54.4229 403.824 54.7115C374.1 81.8381 315.107 135.492 311.19 131.762C307.357 128.114 285.402 142.534 273.963 152.54C270.5 148.212 263.574 153.406 260.977 155.137L203.838 201.022L183.06 188.901C176.789 183.715 171.107 186.278 159.685 194.096Z" fill="#3E4862"/>
</mask>
<g mask="url(#mask0_920_1232)">
<path d="M159.685 194.096L128.518 219.202C121.881 226.994 108.26 241.712 106.875 238.249C105.49 234.786 99.9489 233.92 97.3516 233.92L0.388672 319.628L97.3516 335.212L462.694 381.096L903.356 308.374L891.236 280.67C884.31 265.375 868.38 231.669 860.069 219.202C849.68 203.619 828.037 178.512 823.708 182.841C820.245 186.304 811.299 181.398 807.259 178.512C794.562 165.238 767.954 137.996 763.106 135.225C758.258 132.455 753.006 136.38 750.986 138.688C737.134 126.279 708.218 100.596 703.37 97.1328C697.31 92.8041 687.787 104.924 684.324 106.656C680.861 108.387 678.264 104.924 673.069 97.1328C668.914 90.8995 658.063 92.8041 653.157 94.5356L622.856 113.582C606.119 93.9584 571.085 53.6726 564.852 49.5171C558.618 45.3615 539.168 52.98 530.222 57.3087C525.893 53.5572 516.716 44.6689 514.639 39.1282C512.041 32.2022 502.518 39.1282 499.921 39.1282C497.324 39.1282 480.009 20.9476 476.546 17.4846C473.083 14.0217 477.412 9.69297 476.546 4.49852C475.68 -0.695924 473.949 -0.695924 470.486 1.03556C467.023 2.76704 456.634 14.0217 447.977 17.4846C439.319 20.9476 435.856 25.2763 434.991 29.605C434.298 33.068 422.582 49.5171 416.81 57.3087C414.04 54.5384 406.998 54.4229 403.824 54.7115C374.1 81.8381 315.107 135.492 311.19 131.762C307.357 128.114 285.402 142.534 273.963 152.54C270.5 148.212 263.574 153.406 260.977 155.137L203.838 201.022L183.06 188.901C176.789 183.715 171.107 186.278 159.685 194.096Z" fill="#273D51"/>
<path d="M125.056 247.772C114.667 246.386 69.3596 269.127 48.0046 280.67L-10 321.36L73.9769 356.855H742.329L912.014 320.494L889.505 220.068L763.107 136.091C761.086 136.957 756.354 139.208 753.583 141.286C750.12 143.883 717.232 174.184 715.5 184.573C713.768 194.961 712.028 188.036 707.699 188.036C703.37 188.036 733.671 211.411 730.208 214.008C726.745 216.605 725.88 211.411 721.551 204.485C717.222 197.559 703.37 189.767 699.042 188.036C694.713 186.304 683.458 189.767 681.727 194.961C679.995 200.156 693.847 200.156 699.042 202.753C704.236 205.35 708.565 234.786 707.699 239.114C706.833 243.443 695.579 247.772 692.116 250.369C689.345 252.447 689.23 272.59 689.519 282.401C688.076 279.804 684.844 273.051 683.458 266.818C681.727 259.026 674.801 260.758 667.009 258.161C659.218 255.563 657.486 235.651 654.023 229.591C650.56 223.531 647.097 224.397 642.769 220.068C638.44 215.739 629.782 218.337 618.528 215.739C607.273 213.142 606.407 218.337 604.676 215.739C602.944 213.142 590.824 211.411 584.764 209.679C578.704 207.948 581.301 197.559 576.972 194.961C572.644 192.364 551 204.485 544.074 204.485C537.148 204.485 539.745 194.961 538.014 191.498C536.282 188.036 510.31 191.498 510.31 184.573C510.31 177.647 509.444 176.781 504.25 175.915C499.056 175.049 505.116 169.855 502.519 162.063C499.921 154.272 495.593 159.466 493.861 155.137C492.13 150.809 495.593 141.286 495.593 133.494C495.593 125.702 486.069 129.165 483.472 123.971C480.875 118.776 487.801 108.387 487.801 101.462C487.801 94.5356 477.412 85.0124 476.546 78.0865C475.681 71.1606 472.218 67.6976 469.62 67.6976C467.023 67.6976 468.755 86.7439 467.023 91.0726C465.292 95.4013 463.56 87.6097 462.694 83.281C461.829 78.9523 459.232 72.0263 456.634 73.7578C454.037 75.4893 455.769 105.79 454.037 108.387C452.306 110.985 452.306 105.79 451.44 101.462C450.574 97.1328 442.782 99.73 439.319 98.8643C435.857 97.9986 441.917 89.3411 441.051 83.281C440.185 77.2208 427.199 72.0263 422.005 67.6976C417.849 64.2347 416.81 60.4831 416.81 59.0402C415.944 62.2146 414.213 70.468 414.213 78.0865C414.213 87.6097 418.542 87.6097 419.407 95.4013C420.273 103.193 407.287 110.119 406.421 114.448C405.556 118.776 405.556 124.837 402.093 136.091C398.63 147.346 411.616 143.883 414.213 146.48C416.81 149.077 416.81 163.795 416.81 168.124C416.81 172.452 422.005 184.573 411.616 191.498C401.227 198.424 404.69 201.887 403.824 209.679C402.958 217.471 396.898 209.679 391.704 204.485C386.509 199.29 380.449 194.961 380.449 189.767C380.449 184.573 394.301 183.707 399.495 181.11C404.69 178.512 396.898 169.855 395.167 162.063C393.435 154.272 388.241 155.137 385.644 155.137C383.046 155.137 379.583 156.003 378.718 149.943C377.852 143.883 373.523 143.883 369.194 143.883C364.866 143.883 362.269 141.286 359.671 136.091C357.074 130.897 356.208 125.702 354.477 122.239C352.745 118.776 348.417 122.239 347.551 129.165C346.685 136.091 329.37 178.512 327.639 181.11C325.907 183.707 322.444 181.11 318.982 181.11C315.519 181.11 317.25 189.767 315.519 189.767C313.787 189.767 306.861 191.499 305.13 194.961C303.398 198.424 294.741 201.887 292.144 201.887C289.546 201.887 290.412 200.156 289.546 194.961C288.681 189.767 282.62 197.559 279.157 200.156C275.694 202.753 268.769 210.545 267.037 209.679C265.306 208.813 273.097 191.498 275.694 184.573C278.292 177.647 274.829 177.647 271.366 178.512C267.903 179.378 228.079 237.383 220.287 246.04C212.495 254.698 205.569 251.235 208.167 249.503C210.764 247.772 218.556 233.054 220.287 226.994C222.019 220.934 236.736 199.29 240.199 194.961C243.662 190.633 241.065 191.498 236.736 191.498C232.407 191.498 202.972 223.531 195.181 231.323C187.389 239.114 153.625 258.161 144.102 258.161C134.579 258.161 138.042 249.503 125.056 247.772Z" fill="#21252F"/>
<g filter="url(#filter0_d_920_1232)">
<path d="M189.647 207.358C190.018 205.529 168.225 188.388 174 185.5C180 182.5 204.616 197.196 204.5 199.5C204.401 201.466 191.914 206.349 189.647 207.358C189.632 207.429 189.584 207.477 189.5 207.5C189.169 207.591 189.256 207.532 189.647 207.358Z" fill="#FFD12D"/>
<path d="M415.5 55.5C415.5 55.5 427.295 73.4613 430 70.5C432.706 67.5387 446.5 21 446.5 21C446.5 21 461.317 5.23633 474 -4C474 -4 444 12 440 18.5C436 25 415.5 55.5 415.5 55.5Z" fill="#FFD12D"/>
<path d="M556.5 78C561.5 85.5 540.264 71.086 532 55.5C540.608 49.3148 550.524 44.229 561.5 48C555.44 59.7707 551.5 70.5 556.5 78Z" fill="#FFD12D"/>
<path d="M265 158.5C266.5 155.833 269.5 150.2 269.5 149L274 151.5L265 158.5Z" fill="#FFD12D"/>
<path d="M439 97C440 93.5 458.5 70 457 73.5C455.5 77 454.089 107.283 453.5 108C451.791 110.081 451.5 99.5 449.5 98C447.9 96.8 438 100.5 439 97Z" fill="#FFD12D"/>
<path d="M468.5 67.5C466.667 71.5 462.9 79.7 462.5 80.5C463.167 84.3333 464.9 91.9 466.5 91.5C468.1 91.1 468.5 75.3333 468.5 67.5Z" fill="#FFD12D"/>
<path d="M254 180L271 178C267.5 181.5 257 186.5 254 193C251 199.5 217.572 228.449 225 217.5C229.333 210.833 238.4 196.6 240 193C241.6 189.4 250 182.833 254 180Z" fill="#FFD12D"/>
<path d="M95 250L99 233.5L109.5 237L95 250Z" fill="#FFD12D"/>
<path d="M653.738 125.5C672.982 125.63 698.445 110.947 699 94C699.555 77.0532 617.413 106.743 619.5 108C626.673 124.786 637.486 133.205 653.738 125.5Z" fill="#FFD12D"/>
</g>
</g>
<defs>
<filter id="filter0_d_920_1232" x="91" y="-4" width="612.003" height="262" filterUnits="userSpaceOnUse" color-interpolation-filters="sRGB">
<feFlood flood-opacity="0" result="BackgroundImageFix"/>
<feColorMatrix in="SourceAlpha" type="matrix" values="0 0 0 0 0 0 0 0 0 0 0 0 0 0 0 0 0 0 127 0" result="hardAlpha"/>
<feOffset dy="4"/>
<feGaussianBlur stdDeviation="2"/>
<feComposite in2="hardAlpha" operator="out"/>
<feColorMatrix type="matrix" values="0 0 0 0 0 0 0 0 0 0 0 0 0 0 0 0 0 0 0.25 0"/>
<feBlend mode="normal" in2="BackgroundImageFix" result="effect1_dropShadow_920_1232"/>
<feBlend mode="normal" in="SourceGraphic" in2="effect1_dropShadow_920_1232" result="shape"/>
</filter>
</defs>
</svg>
