<svg width="159" height="161" viewBox="0 0 159 161" fill="none" xmlns="http://www.w3.org/2000/svg">
<path fill-rule="evenodd" clip-rule="evenodd" d="M65.5137 0C43.6984 0 26.0137 17.4644 26.0137 39.0078V44.5803C26.0137 54.6534 36.1708 52.1527 36.1708 42.0796V39.0078C36.1708 23.0041 49.3085 10.0306 65.5137 10.0306C81.7188 10.0306 94.8565 23.0041 94.8565 39.0078V42.0796C94.8565 52.1527 105.014 54.6534 105.014 44.5803V39.0078C105.014 17.4644 87.329 0 65.5137 0Z" fill="#5E17EB"/>
<path d="M22.1758 42H18.8515C8.44766 42 0.0136719 50.4647 0.0136719 60.9065V142.093C0.0136719 152.535 8.44766 161 18.8515 161H22.1758C32.5797 161 41.0137 152.535 41.0137 142.093V60.9065C41.0137 50.4647 32.5797 42 22.1758 42Z" fill="black"/>
<path d="M138.937 42H30.09C19.5544 42 11.0137 50.4647 11.0137 60.9065V142.093C11.0137 152.535 19.5544 161 30.09 161H138.937C149.473 161 158.014 152.535 158.014 142.093V60.9065C158.014 50.4647 149.473 42 138.937 42Z" fill="#5E17EB"/>
<path d="M48.0137 68C53.5365 68 58.0137 63.7467 58.0137 58.5C58.0137 53.2533 53.5365 49 48.0137 49C42.4908 49 38.0137 53.2533 38.0137 58.5C38.0137 63.7467 42.4908 68 48.0137 68Z" fill="black"/>
<path d="M119.014 68C124.537 68 129.014 63.7467 129.014 58.5C129.014 53.2533 124.537 49 119.014 49C113.491 49 109.014 53.2533 109.014 58.5C109.014 63.7467 113.491 68 119.014 68Z" fill="black"/>
<path d="M100.097 73.1529C101.983 72.6242 104.232 73.4882 105.963 75.4071C106.321 75.8131 110.735 82.3035 118.198 93.4228L129.87 110.81L129.393 109.227C127.648 103.546 126.926 98.452 127.467 95.6868C127.739 94.2648 128.102 93.487 128.821 92.7731C129.49 92.1122 130.216 91.8324 131.392 91.8202C134.115 91.7741 136.952 94.1283 138.029 97.3066C138.143 97.6481 139.646 103.797 141.361 110.965C144.714 124.952 144.937 126.135 145.009 129.877C145.103 135.586 143.698 140.019 140.944 142.676C140.465 143.153 138.134 144.763 133.717 147.684C127.591 151.758 127.141 152.025 126.14 152.338C122.575 153.427 118.825 153.176 115.012 151.557C111.107 149.905 107.693 147.178 104.762 143.344C103.377 141.536 93.8088 127.302 93.0369 125.898C90.4802 121.26 93.0002 116.724 97.4361 118.017C98.3413 118.282 99.683 119.112 100.394 119.852C100.699 120.179 100.333 119.569 99.0743 117.674C98.117 116.225 97.1263 114.664 96.903 114.205C95.9823 112.387 95.8335 110.316 96.501 108.781C96.8564 107.97 96.9663 107.858 97.9193 107.215C98.8711 106.572 99.0166 106.512 99.8618 106.495C101.4 106.448 103.086 107.197 104.403 108.499C104.99 109.075 104.937 108.977 103.204 106.394C100.81 102.807 100.417 101.796 100.593 99.6971C100.811 97.1111 102.554 95.4979 104.972 95.6572C106.323 95.7361 107.987 96.5569 109.169 97.722C109.674 98.2194 109.026 97.2097 104.158 89.9584C101.078 85.3493 98.3891 81.258 98.1658 80.7987C96.9619 78.4301 97.0308 75.8119 98.3324 74.2862C98.8578 73.6654 99.3276 73.3671 100.097 73.1529Z" fill="white"/>
<path fill-rule="evenodd" clip-rule="evenodd" d="M84.0137 0C62.4745 0 45.0137 17.5321 45.0137 39.159V56.5555C45.0137 66.6676 55.0422 64.1571 55.0422 54.045V39.4565C55.0422 23.3908 68.0136 10.3669 84.0137 10.3669C100.014 10.3669 112.985 23.3908 112.985 39.4565V54.045C112.985 64.1571 123.014 66.6676 123.014 56.5555V39.159C123.014 17.5321 105.553 0 84.0137 0Z" fill="#333652"/>
</svg>
