<svg width="96" height="125" viewBox="0 0 96 125" fill="none" xmlns="http://www.w3.org/2000/svg">
<path d="M53.5 60.5L52.7345 58.1201C51.5625 58.4971 50.8394 59.6712 51.0302 60.8874C51.221 62.1037 52.2689 63 53.5 63L53.5 60.5ZM79.126 29.7109L76.7299 30.4241L76.7299 30.4241L79.126 29.7109ZM31.0198 3.31962C29.6424 3.41595 28.6039 4.6106 28.7003 5.98794C28.7966 7.36529 29.9912 8.40377 31.3686 8.30744L31.0198 3.31962ZM82 74.5L84.2859 73.4876L84.2654 73.4413L84.243 73.3958L82 74.5ZM3.09186 117.676C1.71115 117.676 0.591858 118.795 0.591858 120.176C0.591858 121.557 1.71115 122.676 3.09186 122.676V117.676ZM54.2655 62.8799C63.3062 59.972 71.179 55.5158 76.2932 49.8026C81.4758 44.0128 83.8594 36.8513 81.5222 28.9978L76.7299 30.4241C78.4781 36.2982 76.8293 41.707 72.5677 46.4678C68.2378 51.305 61.2548 55.3795 52.7345 58.1201L54.2655 62.8799ZM81.5222 28.9978C77.1642 14.3546 64.054 8.03059 52.7644 5.32105C47.0647 3.9531 41.6467 3.45489 37.6663 3.29567C35.6715 3.21588 34.0264 3.2208 32.8731 3.24611C32.2961 3.25877 31.8415 3.27654 31.5269 3.29144C31.3696 3.2989 31.2472 3.30563 31.1619 3.31066C31.1193 3.31318 31.086 3.31526 31.0622 3.3168C31.0503 3.31757 31.0408 3.31819 31.0337 3.31867C31.0302 3.31891 31.0272 3.31911 31.0249 3.31927C31.0237 3.31935 31.0224 3.31944 31.0219 3.31948C31.0207 3.31956 31.0198 3.31962 31.1942 5.81353C31.3686 8.30744 31.3679 8.30749 31.3674 8.30753C31.3674 8.30752 31.367 8.30755 31.3671 8.30755C31.3672 8.30754 31.3679 8.30749 31.3692 8.3074C31.3718 8.30723 31.3768 8.30689 31.3842 8.30642C31.3989 8.30547 31.423 8.30395 31.4563 8.30199C31.5229 8.29806 31.626 8.29236 31.7635 8.28584C32.0385 8.27282 32.4507 8.25658 32.9827 8.24491C34.0473 8.22155 35.5882 8.21654 37.4664 8.29167C41.2319 8.44229 46.3073 8.91332 51.5975 10.183C62.2878 12.7487 73.1435 18.3734 76.7299 30.4241L81.5222 28.9978ZM53.5 63C67.3766 63 76.3456 68.674 79.757 75.6041L84.243 73.3958C79.7341 64.2365 68.6234 58 53.5 58L53.5 63ZM79.7141 75.5123C81.4961 79.5361 81.9823 83.0652 81.5626 86.1774C81.1428 89.2906 79.7931 92.1606 77.63 94.8278C73.2439 100.236 65.6344 104.657 56.4417 108.124C38.1148 115.036 14.8258 117.676 3.09186 117.676V122.676C15.2661 122.676 39.1811 119.978 58.2062 112.802C67.6896 109.225 76.2931 104.414 81.5135 97.9772C84.1537 94.7216 85.9555 91.0154 86.5178 86.8455C87.0802 82.6746 86.3789 78.2139 84.2859 73.4876L79.7141 75.5123Z" fill="#FFE60A"/>
<path d="M38.2297 72.0184C50.979 71.9257 59.3411 76.474 61.6888 80.4211C68.3531 91.6253 33.0039 104.743 8.00001 102.782" stroke="#FFE600" stroke-linecap="round"/>
<path d="M31.7891 58.3134L67.5 104" stroke="white" stroke-width="10" stroke-linecap="round"/>
<path d="M5 120L29 5" stroke="white" stroke-width="10" stroke-linecap="round"/>
<path d="M87.5003 11.0004L19.5 60.9999" stroke="white" stroke-width="10" stroke-linecap="round"/>
</svg>
