<svg width="108" height="133" viewBox="0 0 108 133" fill="none" xmlns="http://www.w3.org/2000/svg">
<path d="M65.5 66.7706L65.1938 65.8187C64.725 65.9694 64.4358 66.4391 64.5121 66.9256C64.5884 67.4121 65.0075 67.7706 65.5 67.7706L65.5 66.7706ZM91.126 37.9814L90.1676 38.2666L90.1676 38.2666L91.126 37.9814ZM43.1244 13.0864C42.5735 13.1249 42.1581 13.6027 42.1966 14.1537C42.2351 14.7046 42.713 15.12 43.2639 15.0815L43.1244 13.0864ZM94 84.7705L94.9143 84.3655L94.9061 84.347L94.8972 84.3288L94 84.7705ZM1 130.271C0.447715 130.271 0 130.718 0 131.271C0 131.823 0.447715 132.271 1 132.271V130.271ZM65.8062 67.7226C74.6501 64.878 82.255 61.0505 87.1415 56.1088C92.0796 51.1151 94.2469 44.962 92.0845 37.6961L90.1676 38.2666C92.0907 44.7284 90.2255 50.1457 85.7194 54.7026C81.1618 59.3115 73.9109 63.0148 65.1938 65.8187L65.8062 67.7226ZM92.0845 37.6961C87.958 23.8306 75.5242 17.7164 64.4144 15.05C58.8375 13.7116 53.5223 13.2215 49.6063 13.0649C47.6465 12.9865 46.0327 12.9914 44.906 13.0161C44.3425 13.0285 43.9006 13.0458 43.5979 13.0601C43.4465 13.0673 43.3299 13.0737 43.2503 13.0784C43.2104 13.0808 43.1799 13.0827 43.1588 13.0841C43.1483 13.0847 43.1401 13.0853 43.1344 13.0857C43.1315 13.0859 43.1292 13.086 43.1276 13.0861C43.1267 13.0862 43.126 13.0862 43.1255 13.0863C43.1249 13.0863 43.1244 13.0864 43.1942 14.0839C43.2639 15.0815 43.2638 15.0815 43.2637 15.0815C43.2639 15.0815 43.2641 15.0815 43.2644 15.0814C43.2652 15.0814 43.2666 15.0813 43.2686 15.0812C43.2725 15.0809 43.2789 15.0805 43.2876 15.0799C43.305 15.0788 43.3319 15.0771 43.368 15.075C43.4402 15.0707 43.5491 15.0647 43.6925 15.0579C43.9794 15.0443 44.4044 15.0276 44.9499 15.0157C46.041 14.9917 47.6132 14.9867 49.5264 15.0633C53.3564 15.2165 58.5346 15.6956 63.9476 16.9948C74.8177 19.6036 86.3497 25.4381 90.1676 38.2666L92.0845 37.6961ZM65.5 67.7706C79.5141 67.7706 89.2591 77.4038 93.1028 85.2121L94.8972 84.3288C90.8207 76.0477 80.4859 65.7706 65.5 65.7706L65.5 67.7706ZM93.0857 85.1754C94.9468 89.378 95.2808 93.1618 94.4621 96.5847C93.6406 100.019 91.6364 103.181 88.6701 106.087C82.7132 111.923 73.0242 116.584 61.9676 120.195C39.8835 127.408 12.8652 130.271 1 130.271V132.271C13.043 132.271 40.2747 129.384 62.5885 122.096C73.7309 118.457 83.7778 113.68 90.0697 107.516C93.2277 104.422 95.4761 100.943 96.4073 97.05C97.3413 93.1448 96.9282 88.9129 94.9143 84.3655L93.0857 85.1754Z" fill="#FFE60A"/>
<path d="M69.9998 37.0001C69.9998 26.5 35.4999 26.5 35.4999 26.5M55.5 74.5C88.4999 85.5 57.4998 105 21 105" stroke="#FFE60A" stroke-width="2" stroke-linecap="round"/>
<path d="M43.7891 61.313L79.5 107" stroke="white" stroke-width="15" stroke-linecap="round"/>
<path d="M20 107L41 8.00001" stroke="white" stroke-width="15" stroke-linecap="round"/>
<path d="M99.5003 14L31.5 63.9996" stroke="white" stroke-width="15" stroke-linecap="round"/>
</svg>
