<svg width="113" height="81" viewBox="0 0 113 81" fill="none" xmlns="http://www.w3.org/2000/svg">
<path d="M46.5 80.7C45.0333 80.7 43.3333 79.8333 41.4 78.1C39.4667 76.3667 37.4 74.0667 35.2 71.2C33.0667 68.3333 30.9333 65.2333 28.8 61.9C26.7333 58.5 24.8 55.1333 23 51.8C21.2667 48.4667 19.8 45.5 18.6 42.9L8.9 74.3C8.43333 75.8333 7.7 76.9 6.7 77.5C5.7 78.1667 4.6 78.5667 3.4 78.7C2.26667 78.8333 1.13333 78.9 1.19209e-07 78.9C0.866667 77.0333 1.73333 74.9 2.6 72.5C3.53333 70.1 4.6 67.2 5.8 63.8C7.06667 60.4 8.53333 56.2667 10.2 51.4C11.8667 46.5333 13.8333 40.7333 16.1 34C18.4333 27.2 21.1667 19.2333 24.3 10.1C24.5 9.56666 24.7667 8.83333 25.1 7.9C25.4333 6.9 25.6 6 25.6 5.2C25.6 4.46666 25.4333 3.9 25.1 3.49999C24.7667 3.03333 24.1333 2.8 23.2 2.8C21.6 2.8 20.0333 3.46666 18.5 4.79999C17.0333 6.06666 15.7 7.7 14.5 9.7C13.3667 11.7 12.4667 13.7667 11.8 15.9C11.1333 18.0333 10.8 19.9333 10.8 21.6C10.8 22.8667 10.9667 24 11.3 25C9.1 25 7.53333 24.4667 6.6 23.4C5.73333 22.2667 5.3 20.9 5.3 19.3C5.3 17.0333 5.96667 14.7667 7.3 12.5C8.63333 10.2333 10.3333 8.16667 12.4 6.3C14.5333 4.36666 16.7333 2.83333 19 1.7C21.3333 0.566664 23.4333 -2.86102e-06 25.3 -2.86102e-06C27.1 -2.86102e-06 28.3 0.499997 28.9 1.5C29.5667 2.49999 29.9 3.59999 29.9 4.79999C29.9 5.53333 29.8 6.26666 29.6 7C29.4667 7.73333 29.3 8.43333 29.1 9.1L20.7 36.3C21.6333 34.9667 22.8333 33.7333 24.3 32.6C25.8333 31.4667 27.5 30.1667 29.3 28.7C32.3 26.3 35.5 23.5 38.9 20.3C42.3667 17.1 45.6667 13.7333 48.8 10.2C51.9333 6.66667 54.5333 3.26667 56.6 -2.86102e-06C56.9333 0.399996 57.1667 1.09999 57.3 2.09999C57.4333 3.1 57.5 3.86666 57.5 4.39999C57.5 6.46666 56.6333 8.73333 54.9 11.2C53.2333 13.6667 51.0333 16.2333 48.3 18.9C45.5667 21.5 42.5667 24.1 39.3 26.7C36.0333 29.2333 32.8 31.6333 29.6 33.9C26.4667 36.1667 23.6333 38.1333 21.1 39.8C23.1 43.2 25.0333 46.4333 26.9 49.5C28.8333 52.5667 30.9 55.5667 33.1 58.5C35.3667 61.4333 38 64.4333 41 67.5C44 70.5667 47.6333 73.8667 51.9 77.4C51.4333 78.2667 50.7 79.0333 49.7 79.7C48.7 80.3667 47.6333 80.7 46.5 80.7ZM68.9844 80.7C65.3177 80.7 62.551 80.0667 60.6844 78.8C58.8177 77.6 57.8844 75.5667 57.8844 72.7C57.8844 72.5 58.051 72.4 58.3844 72.4C58.851 72.4 59.6844 72.5667 60.8844 72.9C62.0844 73.2333 64.3844 73.4 67.7844 73.4C73.5177 73.4 78.8177 72.7667 83.6844 71.5C88.551 70.1667 92.751 68.3667 96.2844 66.1C99.8844 63.8333 102.651 61.3 104.584 58.5C106.584 55.6333 107.584 52.7 107.584 49.7C107.584 46.9667 106.818 44.7667 105.284 43.1C103.751 41.4333 101.718 40.1667 99.1844 39.3C96.7177 38.4333 94.0177 37.8667 91.0844 37.6C88.151 37.2667 85.251 37.1 82.3844 37.1C81.1177 37.1 79.8177 37.1333 78.4844 37.2C77.2177 37.2 76.0177 37.2 74.8844 37.2C73.351 42.6 71.851 48.0333 70.3844 53.5C68.9177 58.9667 67.4177 64.2667 65.8844 69.4C64.2177 69.4 62.8177 68.9333 61.6844 68C60.551 67.0667 59.9844 65.9333 59.9844 64.6C59.9844 63.8 60.151 62.8667 60.4844 61.8C60.8177 60.7333 61.1177 59.7667 61.3844 58.9C61.7844 57.5667 62.4844 55.3333 63.4844 52.2C64.4844 49.0667 65.6844 45.4 67.0844 41.2C68.551 37 70.151 32.6 71.8844 28C73.6177 23.4 75.3844 18.9 77.1844 14.5C79.051 10.1 80.851 6.2 82.5844 2.8C79.7844 3.26666 77.4177 3.93333 75.4844 4.79999C73.6177 5.66666 72.151 6.46666 71.0844 7.2C70.0177 7.86667 69.251 8.2 68.7844 8.2C68.451 8.2 68.0177 8.06667 67.4844 7.8C67.0177 7.46667 66.5844 7.1 66.1844 6.69999C65.7844 6.23333 65.5844 5.83333 65.5844 5.5C68.9177 4.1 72.3844 2.83333 75.9844 1.7C79.651 0.566664 84.0844 -2.86102e-06 89.2844 -2.86102e-06C91.4844 -2.86102e-06 93.9177 0.199997 96.5844 0.599995C99.251 0.933328 101.784 1.66666 104.184 2.8C106.584 3.86666 108.551 5.46666 110.084 7.59999C111.618 9.66666 112.384 12.4333 112.384 15.9C112.384 19.1667 111.684 21.9667 110.284 24.3C108.884 26.5667 107.051 28.4667 104.784 30C102.518 31.4667 100.051 32.6333 97.3844 33.5C94.7177 34.3667 92.0844 35 89.4844 35.4C94.4177 35.6667 98.3844 36.3667 101.384 37.5C104.451 38.6333 106.751 40 108.284 41.6C109.884 43.1333 110.951 44.7667 111.484 46.5C112.018 48.2333 112.284 49.9 112.284 51.5C112.284 55.3667 111.284 58.8667 109.284 62C107.284 65.1333 104.651 67.8667 101.384 70.2C98.1177 72.5333 94.551 74.4667 90.6844 76C86.8177 77.6 82.9844 78.7667 79.1844 79.5C75.3844 80.3 71.9844 80.7 68.9844 80.7ZM75.4844 34.9C79.151 34.7667 82.7844 34.3667 86.3844 33.7C90.051 32.9667 93.3844 31.8333 96.3844 30.3C99.3844 28.7667 101.784 26.7667 103.584 24.3C105.451 21.8333 106.384 18.7667 106.384 15.1C106.384 11.6333 105.551 8.96666 103.884 7.1C102.284 5.23333 100.184 3.93333 97.5844 3.2C95.051 2.46666 92.351 2.09999 89.4844 2.09999C89.151 2.09999 88.8177 2.09999 88.4844 2.09999C88.2177 2.09999 87.9177 2.13333 87.5844 2.2C85.1844 6.86666 82.9844 12 80.9844 17.6C79.051 23.2 77.2177 28.9667 75.4844 34.9Z" fill="white"/>
</svg>
